<svg xmlns="http://www.w3.org/2000/svg" width="1200" height="500" viewBox="0 0 1200 500" role="img" aria-labelledby="title desc">
  <title id="title">Selected engineering projects</title><desc id="desc">Animated product cards for KinaHub, Android 17 Cinnamon Bun, and BikramGole.</desc>
  <defs>
    <linearGradient id="bg" x1="0" x2="1" y1="0" y2="1"><stop stop-color="#06070a"/><stop offset="1" stop-color="#111019"/></linearGradient>
    <linearGradient id="g1" x1="0" x2="1"><stop stop-color="#64d2ff"/><stop offset="1" stop-color="#2997ff"/></linearGradient>
    <linearGradient id="g2" x1="0" x2="1"><stop stop-color="#2997ff"/><stop offset="1" stop-color="#30d158"/></linearGradient>
    <linearGradient id="g3" x1="0" x2="1"><stop stop-color="#bf5af2"/><stop offset="1" stop-color="#ff9f0a"/></linearGradient>
    <linearGradient id="shade" x1="0" y1="0" x2="0" y2="1"><stop stop-color="#2997ff" stop-opacity=".22"/><stop offset="1" stop-color="#2997ff" stop-opacity="0"/></linearGradient>
    <filter id="glow"><feGaussianBlur stdDeviation="4" result="b"/><feMerge><feMergeNode in="b"/><feMergeNode in="SourceGraphic"/></feMerge></filter>
    <clipPath id="c1"><rect x="42" y="80" width="350" height="374" rx="25"/></clipPath><clipPath id="c2"><rect x="425" y="80" width="350" height="374" rx="25"/></clipPath><clipPath id="c3"><rect x="808" y="80" width="350" height="374" rx="25"/></clipPath>
    <style>
      .sans{font-family:-apple-system,BlinkMacSystemFont,"Segoe UI",Helvetica,Arial,sans-serif}.mono{font-family:ui-monospace,SFMono-Regular,Menlo,Monaco,Consolas,monospace}
      .chart{stroke-dasharray:390;stroke-dashoffset:390;animation:draw 4s ease-in-out infinite}.flow{stroke-dasharray:5 9;animation:flow 1.5s linear infinite}.pulse{transform-box:fill-box;transform-origin:center;animation:pulse 2.6s ease-in-out infinite}.p2{animation-delay:-.8s}.p3{animation-delay:-1.6s}.p4{animation-delay:-2.2s}
      .packet{animation:packet 3.5s linear infinite}.packet2{animation:packet2 3.2s linear infinite}.ring{transform-box:view-box;transform-origin:983px 172px;animation:spin 8s linear infinite}.scan{animation:scan 4s linear infinite}
      @keyframes draw{45%,80%{stroke-dashoffset:0}100%{stroke-dashoffset:-390}}@keyframes flow{to{stroke-dashoffset:-28}}@keyframes pulse{50%{opacity:.28;transform:scale(1.3)}}@keyframes packet{from{transform:translateX(0)}to{transform:translateX(212px)}}@keyframes packet2{from{transform:translateY(0)}to{transform:translateY(94px)}}@keyframes spin{to{transform:rotate(360deg)}}@keyframes scan{from{transform:translateX(-360px)}to{transform:translateX(420px)}}
    </style>
  </defs>
  <rect width="1200" height="500" rx="28" fill="url(#bg)"/>
  <text x="46" y="48" class="mono" font-size="13" fill="#64d2ff" letter-spacing="3">SELECTED SYSTEMS / BUILT TO MOVE</text>
  <text x="1122" y="48" text-anchor="end" class="mono" font-size="11" fill="#777782">03 SHIPPED BUILDS</text>

  <g clip-path="url(#c1)">
    <rect x="42" y="80" width="350" height="374" rx="25" fill="#15151b"/><rect x="42" y="80" width="350" height="190" fill="#0d1119"/>
    <g opacity=".12"><path d="M66 115H368M66 155H368M66 195H368M66 235H368M105 96V255M165 96V255M225 96V255M285 96V255M345 96V255" stroke="#fff"/></g>
    <path d="M67 235C102 228 111 190 145 199S190 219 213 169 257 203 287 143 329 158 369 111V255H67Z" fill="url(#shade)"/>
    <path class="chart" d="M67 235C102 228 111 190 145 199S190 219 213 169 257 203 287 143 329 158 369 111" fill="none" stroke="url(#g1)" stroke-width="3.5" stroke-linecap="round" filter="url(#glow)"/>
    <circle class="pulse" cx="369" cy="111" r="7" fill="#64d2ff" filter="url(#glow)"/><path class="scan" d="M42 80H100L45 270H-13Z" fill="#fff" opacity=".035"/>
    <text x="68" y="303" class="mono" font-size="11" fill="#64d2ff" letter-spacing="1.5">AI LOCAL COMMERCE</text><text x="66" y="342" class="sans" font-size="28" font-weight="740" fill="#f5f5f7">KinaHub</text>
    <text x="68" y="375" class="sans" font-size="15" fill="#a2a2ab">Local sellers meet smart commerce.</text><rect x="68" y="404" width="95" height="25" rx="12.5" fill="#64d2ff" fill-opacity=".1"/><text x="115" y="421" text-anchor="middle" class="mono" font-size="9" fill="#64d2ff">REACT + DJANGO</text><text x="358" y="421" text-anchor="end" class="mono" font-size="10" fill="#777782">01 →</text>
  </g><rect x="42" y="80" width="350" height="374" rx="25" fill="none" stroke="#fff" stroke-opacity=".1"/>

  <g clip-path="url(#c2)">
    <rect x="425" y="80" width="350" height="374" rx="25" fill="#15151b"/><rect x="425" y="80" width="350" height="190" fill="#0c1215"/>
    <g opacity=".26"><path d="M477 132H721M477 218H721M512 109V242M600 109V242M688 109V242" stroke="#667078" stroke-width="1"/></g>
    <path class="flow" d="M477 175H721M600 122V228" stroke="url(#g2)" stroke-width="2"/>
    <circle cx="477" cy="175" r="14" fill="#111820" stroke="#2997ff"/><text x="477" y="179" text-anchor="middle" class="mono" font-size="8" fill="#64d2ff">UI</text>
    <circle cx="600" cy="122" r="14" fill="#111820" stroke="#30d158"/><text x="600" y="126" text-anchor="middle" class="mono" font-size="8" fill="#74e598">3D</text>
    <circle cx="600" cy="228" r="14" fill="#111820" stroke="#2997ff"/><text x="600" y="232" text-anchor="middle" class="mono" font-size="8" fill="#64d2ff">SIM</text>
    <circle cx="721" cy="175" r="14" fill="#111820" stroke="#30d158"/><text x="721" y="179" text-anchor="middle" class="mono" font-size="8" fill="#74e598">REDUX</text>
    <circle class="packet" cx="490" cy="175" r="4" fill="#64d2ff" filter="url(#glow)"/><circle class="packet2" cx="600" cy="128" r="4" fill="#30d158" filter="url(#glow)"/>
    <text x="451" y="303" class="mono" font-size="11" fill="#49c9a0" letter-spacing="1.5">CINEMATIC ANDROID SHOWCASE</text><text x="449" y="342" class="sans" font-size="28" font-weight="740" fill="#f5f5f7">Android 17</text>
    <text x="451" y="375" class="sans" font-size="15" fill="#a2a2ab">Cinnamon Bun — API 37, in 3D.</text><rect x="451" y="404" width="106" height="25" rx="12.5" fill="#30d158" fill-opacity=".1"/><text x="504" y="421" text-anchor="middle" class="mono" font-size="9" fill="#61da89">THREE.JS + REACT</text><text x="741" y="421" text-anchor="end" class="mono" font-size="10" fill="#777782">02 →</text>
  </g><rect x="425" y="80" width="350" height="374" rx="25" fill="none" stroke="#fff" stroke-opacity=".1"/>

  <g clip-path="url(#c3)">
    <rect x="808" y="80" width="350" height="374" rx="25" fill="#15151b"/><rect x="808" y="80" width="350" height="190" fill="#130f16"/>
    <g opacity=".25"><circle cx="983" cy="172" r="73" fill="none" stroke="#8e6c98"/><circle cx="983" cy="172" r="45" fill="none" stroke="#8e6c98"/></g>
    <g class="ring"><ellipse cx="983" cy="172" rx="116" ry="52" fill="none" stroke="url(#g3)" stroke-width="1.5" stroke-dasharray="5 9"/><circle cx="1098" cy="172" r="5" fill="#ff9f0a" filter="url(#glow)"/></g>
    <circle cx="983" cy="172" r="24" fill="#18121f" stroke="#bf5af2"/><text x="983" y="168" text-anchor="middle" class="mono" font-size="8" fill="#e09aff">BIKRAM</text><text x="983" y="180" text-anchor="middle" class="mono" font-size="8" fill="#e09aff">GOLE</text>
    <g><circle class="pulse" cx="886" cy="133" r="17" fill="#bf5af2" fill-opacity=".22"/><circle cx="886" cy="133" r="9" fill="#19131e" stroke="#bf5af2"/><text x="886" y="136" text-anchor="middle" class="mono" font-size="7" fill="#e09aff">THEME</text></g>
    <g><circle class="pulse p2" cx="1078" cy="127" r="17" fill="#ff9f0a" fill-opacity=".18"/><circle cx="1078" cy="127" r="9" fill="#19131e" stroke="#ff9f0a"/><text x="1078" y="130" text-anchor="middle" class="mono" font-size="7" fill="#ffc05c">TERM</text></g>
    <g><circle class="pulse p3" cx="1084" cy="222" r="17" fill="#ff375f" fill-opacity=".18"/><circle cx="1084" cy="222" r="9" fill="#19131e" stroke="#ff375f"/><text x="1084" y="225" text-anchor="middle" class="mono" font-size="7" fill="#ff7992">QUIZ</text></g>
    <g><circle class="pulse p4" cx="884" cy="220" r="17" fill="#af52de" fill-opacity=".18"/><circle cx="884" cy="220" r="9" fill="#19131e" stroke="#af52de"/><text x="884" y="223" text-anchor="middle" class="mono" font-size="7" fill="#d88cf3">DARK</text></g>
    <text x="834" y="303" class="mono" font-size="11" fill="#d277ff" letter-spacing="1.5">COSMIC PERSONAL SITE</text><text x="832" y="342" class="sans" font-size="28" font-weight="740" fill="#f5f5f7">BikramGole</text>
    <text x="834" y="375" class="sans" font-size="15" fill="#a2a2ab">Theme engine, terminal, persona quiz.</text><rect x="834" y="404" width="112" height="25" rx="12.5" fill="#bf5af2" fill-opacity=".1"/><text x="890" y="421" text-anchor="middle" class="mono" font-size="9" fill="#db89ff">AURA INTERACTIVE</text><text x="1124" y="421" text-anchor="end" class="mono" font-size="10" fill="#777782">03 →</text>
  </g><rect x="808" y="80" width="350" height="374" rx="25" fill="none" stroke="#fff" stroke-opacity=".1"/>
  <rect x=".75" y=".75" width="1198.5" height="498.5" rx="27.25" fill="none" stroke="#fff" stroke-opacity=".12" stroke-width="1.5"/>
</svg>